<svg xmlns="http://www.w3.org/2000/svg" xmlns:xlink="http://www.w3.org/1999/xlink" viewBox="0 0 512 512" width="512" height="512">
  <!-- White background with rounded corners -->
  <rect width="512" height="512" rx="64" fill="#ffffff"/>
  
  <!-- Embed the actual logo, scaled and centered -->
  <!-- Original logo viewBox: 140 220 1150 440 => aspect ~2.6:1 -->
  <!-- In 512x512, we center it vertically with padding -->
  <g transform="translate(20, 120) scale(0.41)">
<svg viewBox="140 220 1150 440" width="1150" height="440"><defs><g/><clipPath id="d333203aa5"><path d="M 20.22 302.554688 L 1104.98 302.554688 L 1104.98 432.890625 L 20.22 432.890625 Z M 20.22 302.554688 " clip-rule="nonzero"/></clipPath><clipPath id="8ac56a0463"><path d="M -3.78 0.554688 L 1080.98 0.554688 L 1080.98 130.890625 L -3.78 130.890625 Z M -3.78 0.554688 " clip-rule="nonzero"/></clipPath><clipPath id="bf1005e9e2"><rect x="-4" width="1150" y="0" height="440"/></clipPath><clipPath id="8c211bbc5c"><path d="M 33.5 306 L 1127.519531 306 L 1127.519531 429 L 33.5 429 Z M 33.5 306 " clip-rule="nonzero"/></clipPath><clipPath id="cb7e9fcbdd"><rect x="0" width="1150" y="0" height="440"/></clipPath><clipPath id="823d4459c0"><path d="M 0.238281 0.679688 L 1127 0.679688 L 1127 307 L 0.238281 307 Z M 0.238281 0.679688 " clip-rule="nonzero"/></clipPath><clipPath id="7c94d7dbcf"><rect x="0" width="1150" y="0" height="440"/></clipPath><clipPath id="510ed35a76"><rect x="0" width="1150" y="0" height="440"/></clipPath></defs><g transform="matrix(1, 0, 0, 1, 156, 193)"><g clip-path="url(#510ed35a76)"><g clip-path="url(#d333203aa5)"><g transform="matrix(1, 0, 0, 1, 24, 302)"><g clip-path="url(#bf1005e9e2)"><g clip-path="url(#8ac56a0463)"><path fill="#000000" d="M -3.78 0.554688 L 1080.98 0.554688 L 1080.98 130.890625 L -3.78 130.890625 Z M -3.78 0.554688 " fill-opacity="1" fill-rule="nonzero"/></g></g></g></g><g clip-path="url(#8c211bbc5c)"><g transform="matrix(1, 0, 0, 1, 33.5, 306)"><g clip-path="url(#cb7e9fcbdd)"><g fill="#ffffff" fill-opacity="1"><g transform="translate(0.686793, 98.937468)"><g><path d="M 7.421875 0 L 7.421875 -77.78125 L 23.125 -77.78125 L 23.125 0 Z M 7.421875 0 "/></g></g></g><g fill="#ffffff" fill-opacity="1"><g transform="translate(62.490474, 98.937468)"><g><path d="M 8.0625 0 L 8.0625 -77.78125 L 23.34375 -77.78125 L 55.171875 -25.84375 L 55.171875 -77.78125 L 69.765625 -77.78125 L 69.765625 0 L 54.015625 0 L 22.65625 -50.71875 L 22.65625 0 Z M 8.0625 0 "/></g></g></g><g fill="#ffffff" fill-opacity="1"><g transform="translate(172.568826, 98.937468)"><g><path d="M 8.0625 0 L 8.0625 -77.78125 L 23.34375 -77.78125 L 55.171875 -25.84375 L 55.171875 -77.78125 L 69.765625 -77.78125 L 69.765625 0 L 54.015625 0 L 22.65625 -50.71875 L 22.65625 0 Z M 8.0625 0 "/></g></g></g><g fill="#ffffff" fill-opacity="1"><g transform="translate(282.647177, 98.937468)"><g><path d="M 4.71875 -38.40625 C 4.71875 -46.332031 5.90625 -52.984375 8.28125 -58.359375 C 10.039062 -62.316406 12.453125 -65.867188 15.515625 -69.015625 C 18.578125 -72.171875 21.929688 -74.507812 25.578125 -76.03125 C 30.421875 -78.082031 36.007812 -79.109375 42.34375 -79.109375 C 53.800781 -79.109375 62.96875 -75.550781 69.84375 -68.4375 C 76.726562 -61.332031 80.171875 -51.445312 80.171875 -38.78125 C 80.171875 -26.226562 76.753906 -16.40625 69.921875 -9.3125 C 63.097656 -2.21875 53.972656 1.328125 42.546875 1.328125 C 30.984375 1.328125 21.785156 -2.195312 14.953125 -9.25 C 8.128906 -16.3125 4.71875 -26.03125 4.71875 -38.40625 Z M 20.90625 -38.9375 C 20.90625 -30.132812 22.9375 -23.457031 27 -18.90625 C 31.070312 -14.363281 36.238281 -12.09375 42.5 -12.09375 C 48.757812 -12.09375 53.894531 -14.347656 57.90625 -18.859375 C 61.925781 -23.367188 63.9375 -30.132812 63.9375 -39.15625 C 63.9375 -48.070312 61.976562 -54.722656 58.0625 -59.109375 C 54.15625 -63.492188 48.96875 -65.6875 42.5 -65.6875 C 36.019531 -65.6875 30.800781 -63.460938 26.84375 -59.015625 C 22.882812 -54.578125 20.90625 -47.882812 20.90625 -38.9375 Z M 20.90625 -38.9375 "/></g></g></g><g fill="#ffffff" fill-opacity="1"><g transform="translate(398.773101, 98.937468)"><g><path d="M 27.75 0 L -0.046875 -77.78125 L 16.984375 -77.78125 L 36.65625 -20.21875 L 55.703125 -77.78125 L 72.359375 -77.78125 L 44.515625 0 Z M 27.75 0 "/></g></g></g><g fill="#ffffff" fill-opacity="1"><g transform="translate(494.792878, 98.937468)"><g><path d="M 78.046875 0 L 60.953125 0 L 54.171875 -17.671875 L 23.078125 -17.671875 L 16.65625 0 L 0 0 L 30.296875 -77.78125 L 46.90625 -77.78125 Z M 49.125 -30.765625 L 38.40625 -59.640625 L 27.90625 -30.765625 Z M 49.125 -30.765625 "/></g></g></g><g fill="#ffffff" fill-opacity="1"><g transform="translate(596.807162, 98.937468)"><g><path d="M 25.40625 0 L 25.40625 -64.625 L 2.328125 -64.625 L 2.328125 -77.78125 L 64.140625 -77.78125 L 64.140625 -64.625 L 41.125 -64.625 L 41.125 0 Z M 25.40625 0 "/></g></g></g><g fill="#ffffff" fill-opacity="1"><g transform="translate(694.790332, 98.937468)"><g><path d="M 7.421875 0 L 7.421875 -77.78125 L 23.125 -77.78125 L 23.125 0 Z M 7.421875 0 "/></g></g></g><g fill="#ffffff" fill-opacity="1"><g transform="translate(756.594014, 98.937468)"><g><path d="M 4.71875 -38.40625 C 4.71875 -46.332031 5.90625 -52.984375 8.28125 -58.359375 C 10.039062 -62.316406 12.453125 -65.867188 15.515625 -69.015625 C 18.578125 -72.171875 21.929688 -74.507812 25.578125 -76.03125 C 30.421875 -78.082031 36.007812 -79.109375 42.34375 -79.109375 C 53.800781 -79.109375 62.96875 -75.550781 69.84375 -68.4375 C 76.726562 -61.332031 80.171875 -51.445312 80.171875 -38.78125 C 80.171875 -26.226562 76.753906 -16.40625 69.921875 -9.3125 C 63.097656 -2.21875 53.972656 1.328125 42.546875 1.328125 C 30.984375 1.328125 21.785156 -2.195312 14.953125 -9.25 C 8.128906 -16.3125 4.71875 -26.03125 4.71875 -38.40625 Z M 20.90625 -38.9375 C 20.90625 -30.132812 22.9375 -23.457031 27 -18.90625 C 31.070312 -14.363281 36.238281 -12.09375 42.5 -12.09375 C 48.757812 -12.09375 53.894531 -14.347656 57.90625 -18.859375 C 61.925781 -23.367188 63.9375 -30.132812 63.9375 -39.15625 C 63.9375 -48.070312 61.976562 -54.722656 58.0625 -59.109375 C 54.15625 -63.492188 48.96875 -65.6875 42.5 -65.6875 C 36.019531 -65.6875 30.800781 -63.460938 26.84375 -59.015625 C 22.882812 -54.578125 20.90625 -47.882812 20.90625 -38.9375 Z M 20.90625 -38.9375 "/></g></g></g><g fill="#ffffff" fill-opacity="1"><g transform="translate(872.719916, 98.937468)"><g><path d="M 8.0625 0 L 8.0625 -77.78125 L 23.34375 -77.78125 L 55.171875 -25.84375 L 55.171875 -77.78125 L 69.765625 -77.78125 L 69.765625 0 L 54.015625 0 L 22.65625 -50.71875 L 22.65625 0 Z M 8.0625 0 "/></g></g></g><g fill="#ffffff" fill-opacity="1"><g transform="translate(982.798256, 98.937468)"><g><path d="M 3.921875 -25.3125 L 19.203125 -26.796875 C 20.117188 -21.660156 21.984375 -17.890625 24.796875 -15.484375 C 27.609375 -13.085938 31.40625 -11.890625 36.1875 -11.890625 C 41.238281 -11.890625 45.046875 -12.957031 47.609375 -15.09375 C 50.179688 -17.226562 51.46875 -19.726562 51.46875 -22.59375 C 51.46875 -24.4375 50.925781 -26.003906 49.84375 -27.296875 C 48.769531 -28.585938 46.882812 -29.710938 44.1875 -30.671875 C 42.351562 -31.304688 38.164062 -32.4375 31.625 -34.0625 C 23.207031 -36.144531 17.300781 -38.707031 13.90625 -41.75 C 9.125 -46.03125 6.734375 -51.25 6.734375 -57.40625 C 6.734375 -61.363281 7.851562 -65.066406 10.09375 -68.515625 C 12.34375 -71.960938 15.582031 -74.585938 19.8125 -76.390625 C 24.039062 -78.203125 29.144531 -79.109375 35.125 -79.109375 C 44.882812 -79.109375 52.226562 -76.96875 57.15625 -72.6875 C 62.09375 -68.40625 64.6875 -62.691406 64.9375 -55.546875 L 49.234375 -54.859375 C 48.566406 -58.859375 47.125 -61.734375 44.90625 -63.484375 C 42.695312 -65.234375 39.382812 -66.109375 34.96875 -66.109375 C 30.40625 -66.109375 26.832031 -65.171875 24.25 -63.296875 C 22.582031 -62.085938 21.75 -60.476562 21.75 -58.46875 C 21.75 -56.625 22.53125 -55.050781 24.09375 -53.75 C 26.070312 -52.082031 30.878906 -50.347656 38.515625 -48.546875 C 46.160156 -46.742188 51.8125 -44.878906 55.46875 -42.953125 C 59.125 -41.023438 61.988281 -38.390625 64.0625 -35.046875 C 66.132812 -31.703125 67.171875 -27.570312 67.171875 -22.65625 C 67.171875 -18.195312 65.929688 -14.019531 63.453125 -10.125 C 60.972656 -6.238281 57.46875 -3.347656 52.9375 -1.453125 C 48.414062 0.429688 42.78125 1.375 36.03125 1.375 C 26.195312 1.375 18.644531 -0.894531 13.375 -5.4375 C 8.101562 -9.976562 4.953125 -16.601562 3.921875 -25.3125 Z M 3.921875 -25.3125 "/></g></g></g></g></g></g><g clip-path="url(#823d4459c0)"><g transform="matrix(1, 0, 0, 1, 0, 0.000000000000028422)"><g clip-path="url(#7c94d7dbcf)"><g fill="#000000" fill-opacity="1"><g transform="translate(0.582832, 247.585758)"><g><path d="M 19.640625 -195.9375 L 59.21875 -195.9375 L 59.21875 -89.8125 C 59.21875 -72.976562 59.707031 -62.066406 60.6875 -57.078125 C 62.375 -49.054688 66.398438 -42.613281 72.765625 -37.75 C 79.140625 -32.894531 87.851562 -30.46875 98.90625 -30.46875 C 110.132812 -30.46875 118.597656 -32.757812 124.296875 -37.34375 C 130.003906 -41.9375 133.4375 -47.578125 134.59375 -54.265625 C 135.75 -60.953125 136.328125 -72.046875 136.328125 -87.546875 L 136.328125 -195.9375 L 175.890625 -195.9375 L 175.890625 -93.03125 C 175.890625 -69.5 174.820312 -52.878906 172.6875 -43.171875 C 170.550781 -33.460938 166.609375 -25.265625 160.859375 -18.578125 C 155.109375 -11.890625 147.421875 -6.5625 137.796875 -2.59375 C 128.179688 1.363281 115.617188 3.34375 100.109375 3.34375 C 81.398438 3.34375 67.207031 1.179688 57.53125 -3.140625 C 47.863281 -7.460938 40.222656 -13.078125 34.609375 -19.984375 C 29.003906 -26.890625 25.3125 -34.128906 23.53125 -41.703125 C 20.9375 -52.929688 19.640625 -69.503906 19.640625 -91.421875 Z M 19.640625 -195.9375 "/></g></g><g transform="translate(198.260067, 247.585758)"><g><path d="M 9.890625 -63.75 L 48.390625 -67.5 C 50.703125 -54.582031 55.398438 -45.09375 62.484375 -39.03125 C 69.566406 -32.96875 79.125 -29.9375 91.15625 -29.9375 C 103.894531 -29.9375 113.492188 -32.628906 119.953125 -38.015625 C 126.421875 -43.410156 129.65625 -49.71875 129.65625 -56.9375 C 129.65625 -61.570312 128.296875 -65.515625 125.578125 -68.765625 C 122.859375 -72.015625 118.113281 -74.84375 111.34375 -77.25 C 106.707031 -78.851562 96.144531 -81.707031 79.65625 -85.8125 C 58.445312 -91.0625 43.566406 -97.519531 35.015625 -105.1875 C 22.984375 -115.96875 16.96875 -129.113281 16.96875 -144.625 C 16.96875 -154.601562 19.796875 -163.9375 25.453125 -172.625 C 31.117188 -181.3125 39.273438 -187.925781 49.921875 -192.46875 C 60.566406 -197.007812 73.421875 -199.28125 88.484375 -199.28125 C 113.078125 -199.28125 131.585938 -193.890625 144.015625 -183.109375 C 156.441406 -172.328125 162.96875 -157.9375 163.59375 -139.9375 L 124.03125 -138.203125 C 122.34375 -148.273438 118.710938 -155.515625 113.140625 -159.921875 C 107.566406 -164.335938 99.210938 -166.546875 88.078125 -166.546875 C 76.585938 -166.546875 67.585938 -164.179688 61.078125 -159.453125 C 56.890625 -156.421875 54.796875 -152.367188 54.796875 -147.296875 C 54.796875 -142.660156 56.757812 -138.691406 60.6875 -135.390625 C 65.675781 -131.203125 77.789062 -126.835938 97.03125 -122.296875 C 116.28125 -117.753906 130.515625 -113.050781 139.734375 -108.1875 C 148.960938 -103.332031 156.179688 -96.695312 161.390625 -88.28125 C 166.609375 -79.863281 169.21875 -69.460938 169.21875 -57.078125 C 169.21875 -45.847656 166.097656 -35.332031 159.859375 -25.53125 C 153.617188 -15.726562 144.796875 -8.441406 133.390625 -3.671875 C 121.984375 1.085938 107.769531 3.46875 90.75 3.46875 C 65.976562 3.46875 46.953125 -2.253906 33.671875 -13.703125 C 20.398438 -25.148438 12.472656 -41.832031 9.890625 -63.75 Z M 9.890625 -63.75 "/></g></g><g transform="translate(380.834174, 247.585758)"><g><path d="M 64.015625 0 L 64.015625 -162.796875 L 5.875 -162.796875 L 5.875 -195.9375 L 161.59375 -195.9375 L 161.59375 -162.796875 L 103.59375 -162.796875 L 103.59375 0 Z M 64.015625 0 "/></g></g><g transform="translate(548.037839, 247.585758)"><g><path d="M 19.921875 0 L 19.921875 -195.9375 L 165.203125 -195.9375 L 165.203125 -162.796875 L 59.484375 -162.796875 L 59.484375 -119.359375 L 157.859375 -119.359375 L 157.859375 -86.34375 L 59.484375 -86.34375 L 59.484375 -33.015625 L 168.953125 -33.015625 L 168.953125 0 Z M 19.921875 0 "/></g></g><g transform="translate(730.611946, 247.585758)"><g><path d="M 145.28125 -72.046875 L 183.640625 -59.875 C 177.765625 -38.488281 167.988281 -22.601562 154.3125 -12.21875 C 140.632812 -1.84375 123.28125 3.34375 102.25 3.34375 C 76.226562 3.34375 54.84375 -5.539062 38.09375 -23.3125 C 21.34375 -41.09375 12.96875 -65.398438 12.96875 -96.234375 C 12.96875 -128.847656 21.382812 -154.175781 38.21875 -172.21875 C 55.0625 -190.257812 77.207031 -199.28125 104.65625 -199.28125 C 128.625 -199.28125 148.09375 -192.195312 163.0625 -178.03125 C 171.976562 -169.65625 178.660156 -157.628906 183.109375 -141.953125 L 143.953125 -132.59375 C 141.628906 -142.75 136.789062 -150.765625 129.4375 -156.640625 C 122.09375 -162.523438 113.164062 -165.46875 102.65625 -165.46875 C 88.125 -165.46875 76.335938 -160.253906 67.296875 -149.828125 C 58.253906 -139.398438 53.734375 -122.515625 53.734375 -99.171875 C 53.734375 -74.398438 58.1875 -56.753906 67.09375 -46.234375 C 76.007812 -35.722656 87.59375 -30.46875 101.84375 -30.46875 C 112.363281 -30.46875 121.410156 -33.804688 128.984375 -40.484375 C 136.554688 -47.171875 141.988281 -57.691406 145.28125 -72.046875 Z M 145.28125 -72.046875 "/></g></g><g transform="translate(928.289182, 247.585758)"><g><path d="M 20.046875 0 L 20.046875 -195.9375 L 59.609375 -195.9375 L 59.609375 -118.828125 L 137.140625 -118.828125 L 137.140625 -195.9375 L 176.703125 -195.9375 L 176.703125 0 L 137.140625 0 L 137.140625 -85.671875 L 59.609375 -85.671875 L 59.609375 0 Z M 20.046875 0 "/></g></g></g></g></g></g></g></g></svg>
  </g>
</svg>